<svg id="Livello_1" data-name="Livello 1" xmlns="http://www.w3.org/2000/svg" viewBox="0 0 499.3 456.59"><defs><style>.cls-1{fill:#fff;stroke:#fff;stroke-width:0.75px;}.cls-1,.cls-2,.cls-3{stroke-miterlimit:10;}.cls-2{fill:#e62730;stroke:#e62730;}.cls-3{fill:#1b2c4d;stroke:#1b2c4d;}</style></defs><title>LOGO_MFC</title><path class="cls-1" d="M502.44,79.58c-5.82-35.67-50.86-59.92-88.36-65.11-29.45-4.07-42.46-1.05-53.73.41S318,22.38,318,22.38a387.91,387.91,0,0,1,45.24,15.55c26,10.6,36.9,18.72,38.67,36.28,1.75,17.35-6.35,29-33.84,51.45-25.05,20.47-51,34.14-77.76,47.28-26.1,12.79-72.84,30.44-72.84,30.44a117.8,117.8,0,0,1-19.64,3.54,150.34,150.34,0,0,1-25.37,0l-5.88-1.2c-11.5-2.38-37.41-7.82-54.74-12.17C89,187.81,70.42,178.19,66.53,154.2c-4-24.81,28.21-51.36,28.21-51.36s-41.36,8.64-65.65,37.47S3.71,186,7.22,207.49s26,42.31,53.07,55.62,55.89,19.32,55.89,19.32,2.17,4,11.67,23.13S151,343.2,151,343.2l27.6,32.46,69.52,68.88,44.36,18.31,20.43,5.08,56.7-25s.29-80.77,4.59-100.26,13.79-43,24.35-67.29,13.93-27.36,16-38.83,3.17-15.19,3.17-15.19,33.76-23,57.91-52.28S507.84,112.71,502.44,79.58Z" transform="translate(-5.24 -11.92)"/><path class="cls-2" d="M94.74,102.84S62.5,129.39,66.53,154.2c3.89,24,22.44,33.61,45.29,39.35s60.62,13.37,60.62,13.37-4.06,12.83-4.39,38.26,4.66,44.35,12.23,63.09,15.4,35,15.4,35l-44.65,0s-13.69-18.54-23.18-37.64-11.67-23.13-11.67-23.13-28.76-6-55.89-19.32S10.72,229,7.22,207.49s-2.41-38.36,21.87-67.18S94.74,102.84,94.74,102.84Z" transform="translate(-5.24 -11.92)"/><path class="cls-2" d="M178.63,375.66l35.9-.59s24.52,32.7,34.91,44.08,43.07,43.7,43.07,43.7l-44.36-18.31Z" transform="translate(-5.24 -11.92)"/><path class="cls-3" d="M420.09,105.1l0,.06a5.94,5.94,0,0,0,.61-.49q6-6.08,11.85-12.39a9.38,9.38,0,0,0,.61-.77.8.8,0,0,0-.06-.92c-.6-.59-1.22-1.18-1.85-1.75a1,1,0,0,0-1.26.12c-.37.37-.74.74-1.09,1.13q-8,8.67-16.51,16.92c-.42.42-.84.83-1.25,1.26a7.6,7.6,0,0,0-1.7,2.85,5.47,5.47,0,0,0,.25,4.22,6.55,6.55,0,0,0,3,3,4.26,4.26,0,0,0,1.3.4,7.42,7.42,0,0,0,3.31-.27c.75-.25,1.5-.48,2.24-.76q7.18-2.7,14.35-5.43.38-.14.75-.24a.28.28,0,0,1,.17,0c.12.06.14.18,0,.31-.4.43-.79.88-1.21,1.29L422.05,125c-.42.42-.83.84-1.23,1.28a.75.75,0,0,0,0,.91c.61.69,1.24,1.36,1.87,2a.89.89,0,0,0,.93,0c.46-.38.91-.75,1.34-1.16q9.43-9,18.36-18.41c.54-.57,1.05-1.17,1.54-1.79a7.23,7.23,0,0,0,1.31-2.84,5.24,5.24,0,0,0-.12-2.91,6.41,6.41,0,0,0-2.67-3.29,5.13,5.13,0,0,0-3.57-.81,5.94,5.94,0,0,0-1.72.37c-.55.22-1.11.4-1.66.62-3.65,1.48-7.29,3-10.94,4.44-1.4.57-2.81,1.09-4.22,1.63A1.27,1.27,0,0,1,420.09,105.1ZM279.74,255.26a3.15,3.15,0,0,1,.39.63c.33.85.63,1.73.94,2.59.54,1.48,1.08,3,1.64,4.43a1,1,0,0,0,1.41.68l.38-.12,12-4.55a4.64,4.64,0,0,0,.69-.38.92.92,0,0,0,.36-1q-.15-.48-.33-.93l-7.47-18.65a7.4,7.4,0,0,0-.51-1.06.77.77,0,0,0-.67-.36,1.88,1.88,0,0,0-.58.06c-1,.38-2,.76-2.93,1.17a4,4,0,0,0-1.78,1.5c-.37.55-.71,1.11-1.06,1.66q-5.52,8.76-11.41,17.27c-.19.27-.37.54-.56.8-.75,1-.83,1.08-2.12.63-1.12-.4-2.22-.81-3.33-1.22q-8.33-3-16.53-6.4a16.27,16.27,0,0,0-2-.65,2.17,2.17,0,0,0-1,0,26.24,26.24,0,0,0-4.16,1.17,1,1,0,0,0-.53,1c.11.51.24,1,.38,1.53q2.43,8.71,4.87,17.45c.21.75.42,1.51.65,2.27a1,1,0,0,0,1.09.65,10.47,10.47,0,0,0,1.35-.29c.94-.27,1.88-.55,2.81-.87a.94.94,0,0,0,.6-1.11c-.16-.64-.35-1.27-.53-1.9l-1.68-5.86c-.05-.18.15-.43.31-.39.45.11.9.21,1.33.34l12.21,3.83c.44.13.89.23,1.33.34a3.59,3.59,0,0,0,1.95,0c.95-.28,1.89-.57,2.82-.89a3.69,3.69,0,0,0,1.69-1.31c.32-.42.61-.85.89-1.29q3.12-4.8,6.23-9.59C279.06,256,279.22,255.49,279.74,255.26ZM369.93,145a6.62,6.62,0,0,0-2.78.56,11.09,11.09,0,0,0-2.39,1.36q-2.73,1.94-5.47,3.86-9.46,6.58-19.24,12.69c-1.41.87-1.48,1.22-.6,2.65,2.11,3.4,4.2,6.82,6.3,10.23,1.48,2.4,2.95,4.81,4.44,7.21.66,1.06,1,1.16,2.07.49,3.33-2.1,6.65-4.23,10-6.35l.32-.23a1,1,0,0,0,.36-1.53c-.27-.45-.57-.88-.86-1.32l-8.46-12.82a13,13,0,0,1-.68-1.19c-.05-.09,0-.26.08-.36a.8.8,0,0,1,.27-.28l6.2-4.19a7.09,7.09,0,0,1,1.23-.62,2.08,2.08,0,0,1,2.77,1.17,1.83,1.83,0,0,1,.06,1.52,2.78,2.78,0,0,1-.77,1.13,16.26,16.26,0,0,1-1.39,1.09c-1,.72-2.06,1.4-3.09,2.12a4,4,0,0,0-.74.63.66.66,0,0,0-.16.73c.17.35.36.69.56,1a2.11,2.11,0,0,0,1.43,1l.78.13c3.42.61,6.85,1.23,10.27,1.82,1.29.23,2.6.38,3.9.59a4,4,0,0,0,3.14-.81c3.16-2.35,6.34-4.68,9.51-7,.32-.23.67-.48.61-.93-.08-.61-.63-.61-1.06-.68-1.43-.21-2.86-.37-4.29-.56q-3.53-.45-7-.93a11.77,11.77,0,0,1-1.54-.34c-.06,0-.16-.24-.12-.3.28-.44.6-.85.9-1.28a8.35,8.35,0,0,0,1.43-3.42A5.86,5.86,0,0,0,369.93,145Zm21.17,9.2c.29,0,.94-.1,1.58-.22a12.72,12.72,0,0,0,3.32-1.21,18,18,0,0,0,3.28-2.18c4.12-3.46,8.25-6.92,12.35-10.41a18.75,18.75,0,0,0,2.07-2.11,12.14,12.14,0,0,0,2.42-4.25,9.1,9.1,0,0,0,.3-5,10.29,10.29,0,0,0-1.58-3.58,20.45,20.45,0,0,0-1.61-2c-2.31-2.53-4.63-5-7-7.53-.27-.29-.54-.58-.82-.86a1,1,0,0,0-1.28,0c-1.08,1-2.14,1.94-3.21,2.91a1.81,1.81,0,0,0-.22.32.72.72,0,0,0,0,.75c.31.41.63.84,1,1.23q3.29,3.66,6.58,7.33c.44.49.88,1,1.28,1.5a8.17,8.17,0,0,1,1.27,2.43,4.56,4.56,0,0,1-.66,4.3,8.81,8.81,0,0,1-1.46,1.59c-1.52,1.36-3.07,2.68-4.62,4a10.24,10.24,0,0,1-1.27.92,4.83,4.83,0,0,1-5.23,0,8.09,8.09,0,0,1-2-1.61c-.44-.48-.86-1-1.28-1.49q-3.13-3.8-6.28-7.6c-.25-.3-.52-.59-.79-.87a.88.88,0,0,0-.92-.13,5,5,0,0,0-.66.43l-2.76,2.23q-3.41,2.69-6.8,5.38c-1,.78-1,1.07-.22,2.11,1.59,2.09,3.2,4.17,4.8,6.25.76,1,1.51,2,2.28,3a13.63,13.63,0,0,0,3.14,3A8.61,8.61,0,0,0,391.1,154.2Zm-74.77,48.51c.3,0,1-.11,1.72-.24a16.76,16.76,0,0,0,4.8-1.7q7.26-3.77,14.36-7.8a17.85,17.85,0,0,0,3-2.16,12.11,12.11,0,0,0,2.59-3.2,9.12,9.12,0,0,0,1.06-6.45,12.77,12.77,0,0,0-1.58-4q-2.9-4.8-5.8-9.6a7.4,7.4,0,0,0-.44-.65.84.84,0,0,0-1.06-.27c-1.14.64-2.28,1.29-3.41,2s-1.13,1-.5,2.07q1.88,3.24,3.77,6.46c.66,1.13,1.33,2.26,2,3.4a9.93,9.93,0,0,1,1.17,2.91,4.81,4.81,0,0,1-1.5,4.83,9.46,9.46,0,0,1-1.59,1.15c-1.82,1-3.66,2.05-5.5,3.07a9.55,9.55,0,0,1-1.81.74,4.5,4.5,0,0,1-4.25-.86,7.31,7.31,0,0,1-1.84-2c-.37-.61-.72-1.25-1.06-1.88L316,179.92c-.25-.46-.52-.91-.8-1.35a.83.83,0,0,0-.89-.25c-.18.07-.36.14-.54.23l-11.05,5.61a2.48,2.48,0,0,0-.65.44.72.72,0,0,0-.23.72,5.93,5.93,0,0,0,.33.92c1.68,3.48,3.37,7,5.08,10.44a13.46,13.46,0,0,0,2.08,3.1A8.71,8.71,0,0,0,316.33,202.71Zm30.55,30.93a16.47,16.47,0,0,0,3.75-.54,19.64,19.64,0,0,0,3.95-1.75q11.09-6.21,21.87-12.93c2.65-1.64,2.4-1.53.83-4a3.16,3.16,0,0,0-.38-.44.86.86,0,0,0-.92-.17c-.4.22-.8.44-1.19.68-1.57,1-3.12,1.95-4.7,2.9q-4.63,2.81-9.29,5.57a11.24,11.24,0,0,1-2.12,1,3.36,3.36,0,0,1-3.32-.62,7.28,7.28,0,0,1-1.11-1.11,13.07,13.07,0,0,1-1-1.45c-.86-1.48-1.71-3-2.52-4.46a11.2,11.2,0,0,1-.84-2,3,3,0,0,1,1-3.38,12.12,12.12,0,0,1,1.6-1.13c1.35-.82,2.72-1.59,4.07-2.41q4.89-3,9.75-5.95a12.87,12.87,0,0,0,1.28-.91.82.82,0,0,0,.19-.91c-.44-.73-.88-1.45-1.36-2.16a.87.87,0,0,0-1.23-.2l-1.35.81c-4.56,2.74-9.1,5.5-13.67,8.22-2.49,1.47-5,2.87-7.53,4.29a16.83,16.83,0,0,0-3.23,2.25c-3.26,3-4.76,6.69-4,11.16A11.45,11.45,0,0,0,346.88,233.64Zm-69.11-28a6.72,6.72,0,0,1,1.67.57c5.15,2.13,10.32,4.22,15.54,6.17.43.16.86.33,1.3.47a2.26,2.26,0,0,0,1.54,0c.31-.11.62-.22.92-.36l13.19-6.16a2.23,2.23,0,0,0,.95-.68.62.62,0,0,0,0-.55,1.56,1.56,0,0,0-.44-.38c-.42-.18-.85-.33-1.29-.47q-10.2-3.3-20.23-7.08c-2.46-.93-4.9-1.89-7.35-2.82a6.56,6.56,0,0,0-1.31-.38,3.12,3.12,0,0,0-1.71.34c-2.36,1-2.27.86-3.23,3.1q-5.7,13.29-12.28,26.19c-.21.41-.42.82-.59,1.24a1.8,1.8,0,0,0-.1.57c0,.19.36.55.54.51.38-.1.76-.18,1.13-.31,2.46-.9,4.93-1.78,7.38-2.73,4.58-1.77,9.15-3.59,13.73-5.4.43-.17.85-.35,1.26-.55a.94.94,0,0,0,.5-1.16c-.26-.67-.54-1.34-.83-2a1.41,1.41,0,0,0-.34-.47A.73.73,0,0,0,287,213c-.56.19-1.11.4-1.66.62l-11.52,4.56c-.49.19-1,.39-1.47.56a2.71,2.71,0,0,1-.58.12c-.05,0-.15,0-.17-.05s-.12-.25-.08-.33q2.92-6.22,5.89-12.45A2.22,2.22,0,0,1,277.77,205.59Zm17.55,34.21a12.58,12.58,0,0,0,.79,3.88c.34.86.7,1.7,1.05,2.55l3.59,8.75a6,6,0,0,0,.61,1.22.89.89,0,0,0,.69.3,3.74,3.74,0,0,0,1.12-.31c1.16-.47,2.3-1,3.45-1.45l9.21-4c.42-.18.83-.39,1.23-.61a.94.94,0,0,0,.47-1.17c-.21-.55-.44-1.09-.69-1.63-1.48-3.29-3-6.58-4.47-9.87-.24-.53-.5-1.07-.7-1.62a12.65,12.65,0,0,1-.53-1.89,3,3,0,0,1,1.13-3,9.93,9.93,0,0,1,1.48-1c.57-.31,1.18-.56,1.77-.85l13.28-6.46q.79-.39,1.56-.84a1,1,0,0,0,.46-1.18c-.36-.77-.76-1.52-1.17-2.26a.84.84,0,0,0-1-.27c-.31.13-.6.27-.9.42q-12.21,6.18-24.73,11.71a18,18,0,0,0-3.42,1.93,11.34,11.34,0,0,0-2.84,3A9.36,9.36,0,0,0,295.32,239.8Zm-42.17-30.61c.62-.25,1-.43,1.46-.58l7.6-2.71a7.11,7.11,0,0,0,.89-.4.7.7,0,0,0,.28-.69c-.3-.86-.6-1.73-.93-2.59a.8.8,0,0,0-1-.42q-.46.13-.93.3c-10.32,3.68-20.73,7.06-31.28,10-.32.09-.63.21-.93.32a.74.74,0,0,0-.46,1c.2.76.43,1.51.64,2.27,0,.13.1.25.15.37a.65.65,0,0,0,.63.38l.76-.2,7.94-2.27c.32-.09.64-.16,1-.23a.62.62,0,0,1,.65.32c.16.43.31.87.45,1.3l4.68,15.45c.12.37.27.73.42,1.09a.69.69,0,0,0,.67.32l.56-.16,4.14-1.29,7.29-2.37c.37-.12.73-.29,1.09-.44a.68.68,0,0,0,.32-.67c-.13-.44-.27-.88-.41-1.31l-5-14.92C253.57,210.48,253.39,209.92,253.15,209.19Zm81.62,19.89a1.23,1.23,0,0,0,0-.28,12.22,12.22,0,0,0-1.34-2.62.81.81,0,0,0-.72-.19c-.42.18-.85.35-1.26.56-1.94,1-3.86,1.94-5.81,2.88-3.07,1.49-6.15,2.95-9.22,4.43-.53.25-1,.55-1.55.84a.89.89,0,0,0-.28.89c.35.78.7,1.55,1.09,2.31a.83.83,0,0,0,.85.37,4.53,4.53,0,0,0,1.64-.62q7.35-3.56,14.68-7.14c.42-.2.83-.41,1.23-.64a1.47,1.47,0,0,0,.46-.36A1.84,1.84,0,0,0,334.77,229.08Zm-44.48-56.14c26.78-13.14,52.71-26.81,77.76-47.28,27.49-22.49,35.59-34.1,33.84-51.45-1.77-17.56-12.68-25.68-38.67-36.28A387.91,387.91,0,0,0,318,22.38s31.09-6.05,42.37-7.5,24.28-4.48,53.73-.41c37.5,5.19,82.54,29.44,88.36,65.11,5.4,33.13-2.64,60.2-26.78,89.46s-57.91,52.28-57.91,52.28-1.11,3.73-3.17,15.19-5.44,14.58-16,38.83-20.06,47.8-24.35,67.29-4.59,100.26-4.59,100.26l-56.7,25s-16.71-14.85-38.58-45.34-33.68-54.36-33.68-54.36l103.74-44L330.89,293.6,225,337.2s-17.42-36-18.74-72.68,11.19-61.14,11.19-61.14S264.19,185.73,290.29,172.94ZM282,365.58a8.34,8.34,0,1,0,8.34,8.33A8.34,8.34,0,0,0,282,365.58Zm25.08-10.36a8.34,8.34,0,1,0,8.34,8.34A8.33,8.33,0,0,0,307.07,355.22Zm26.14-11.13a8.34,8.34,0,1,0,8.34,8.34A8.33,8.33,0,0,0,333.21,344.09ZM293,389.47a8.34,8.34,0,1,0,8.34,8.34A8.33,8.33,0,0,0,293,389.47Zm25.07-10.35a8.34,8.34,0,1,0,8.34,8.33A8.33,8.33,0,0,0,318.05,379.12ZM344.19,368a8.34,8.34,0,1,0,8.34,8.33A8.33,8.33,0,0,0,344.19,368Zm-37.5,43.55a8.34,8.34,0,1,0,8.34,8.34A8.34,8.34,0,0,0,306.69,411.54Zm15.36,20.31a8.34,8.34,0,1,0,8.34,8.34A8.34,8.34,0,0,0,322.05,431.85Zm9.71-30.66a8.34,8.34,0,1,0,8.34,8.34A8.33,8.33,0,0,0,331.76,401.19Z" transform="translate(-5.24 -11.92)"/></svg>